<svg xmlns="http://www.w3.org/2000/svg" xmlns:xlink="http://www.w3.org/1999/xlink" width="100%" zoomAndPan="magnify" viewBox="140 660 1220 185" height="100%" preserveAspectRatio="xMidYMid meet" version="1.0"><defs><g/><clipPath id="4f12d30905"><path d="M 150 669.683594 L 303.75 669.683594 L 303.75 826.433594 L 150 826.433594 Z M 150 669.683594 " clip-rule="nonzero"/></clipPath><clipPath id="5c338dca80"><rect x="0" width="986" y="0" height="143"/></clipPath></defs><g clip-path="url(#4f12d30905)"><path fill="#1B6B4A" d="M 301.089844 739.578125 L 275.203125 774.347656 C 274.804688 774.882812 274.859375 775.613281 275.332031 776.085938 C 275.804688 776.558594 276.535156 776.609375 277.070312 776.210938 L 303.210938 756.746094 C 303.5625 756.488281 303.75 756.113281 303.75 755.675781 L 303.75 746.625 C 303.75 744.484375 303.664062 742.363281 303.492188 740.265625 C 303.445312 739.703125 303.074219 739.246094 302.53125 739.09375 C 301.984375 738.9375 301.429688 739.125 301.09375 739.578125 Z M 226.875 777.945312 C 201.601562 777.945312 181.023438 798.070312 180.296875 823.167969 C 180.289062 823.542969 180.414062 823.867188 180.675781 824.136719 C 180.9375 824.40625 181.257812 824.542969 181.632812 824.542969 L 272.117188 824.542969 C 272.492188 824.542969 272.8125 824.40625 273.074219 824.136719 C 273.335938 823.867188 273.460938 823.542969 273.453125 823.167969 C 272.726562 798.070312 252.148438 777.945312 226.875 777.945312 Z M 226.875 669.75 C 222.6875 669.75 218.574219 670.085938 214.566406 670.730469 C 213.847656 670.84375 213.351562 671.519531 213.457031 672.238281 L 225.554688 754.871094 C 225.652344 755.53125 226.207031 756.015625 226.875 756.015625 C 227.542969 756.015625 228.097656 755.53125 228.195312 754.871094 L 240.292969 672.238281 C 240.398438 671.519531 239.902344 670.847656 239.183594 670.730469 C 235.175781 670.085938 231.0625 669.75 226.875 669.75 Z M 198.855469 675.015625 C 191.328125 677.964844 184.378906 682.066406 178.226562 687.105469 C 177.757812 687.488281 177.605469 688.109375 177.84375 688.664062 L 207.570312 757.589844 C 207.832031 758.203125 208.496094 758.523438 209.140625 758.347656 C 209.785156 758.175781 210.195312 757.566406 210.121094 756.90625 L 200.667969 676.101562 C 200.621094 675.679688 200.394531 675.335938 200.03125 675.113281 C 199.664062 674.894531 199.253906 674.859375 198.855469 675.015625 Z M 165.757812 699.996094 C 166.054688 699.605469 166.507812 699.417969 167 699.484375 C 167.488281 699.550781 167.875 699.855469 168.054688 700.3125 L 193.183594 763.546875 C 193.429688 764.167969 193.1875 764.863281 192.613281 765.195312 C 192.035156 765.53125 191.3125 765.390625 190.898438 764.867188 L 155.433594 720.003906 C 155.132812 719.625 155.0625 719.148438 155.238281 718.695312 C 157.871094 711.945312 161.429688 705.660156 165.757812 699.996094 Z M 150.257812 740.265625 C 150.304688 739.703125 150.675781 739.25 151.21875 739.09375 C 151.765625 738.9375 152.320312 739.125 152.65625 739.578125 L 178.546875 774.347656 C 178.945312 774.882812 178.890625 775.613281 178.417969 776.085938 C 177.945312 776.558594 177.214844 776.609375 176.679688 776.214844 L 150.949219 757.054688 C 150.601562 756.792969 150.410156 756.417969 150.410156 755.984375 L 150.410156 754.683594 C 150.410156 754.632812 150.410156 754.59375 150.40625 754.546875 C 150.136719 751.941406 150 749.300781 150 746.625 C 150 744.484375 150.089844 742.363281 150.257812 740.265625 Z M 150.410156 778.046875 L 150.410156 783.800781 C 150.410156 784.355469 150.734375 784.832031 151.25 785.039062 L 165.878906 790.851562 C 166.5 791.097656 167.191406 790.859375 167.527344 790.28125 C 167.859375 789.703125 167.722656 788.976562 167.199219 788.566406 L 152.570312 777 C 152.160156 776.675781 151.632812 776.617188 151.164062 776.847656 C 150.691406 777.074219 150.410156 777.523438 150.410156 778.046875 Z M 150.410156 803.160156 L 150.410156 805.566406 C 150.410156 806.246094 150.914062 806.8125 151.589844 806.890625 L 159.238281 807.785156 C 159.902344 807.863281 160.511719 807.449219 160.683594 806.804688 C 160.855469 806.160156 160.535156 805.496094 159.921875 805.234375 L 152.273438 801.9375 C 151.847656 801.753906 151.398438 801.792969 151.011719 802.046875 C 150.625 802.300781 150.410156 802.699219 150.410156 803.160156 Z M 150.410156 823.769531 L 150.410156 825.3125 C 150.410156 825.714844 150.570312 826.058594 150.871094 826.324219 C 151.175781 826.585938 151.542969 826.691406 151.9375 826.632812 L 157.207031 825.859375 C 157.867188 825.765625 158.347656 825.210938 158.347656 824.542969 C 158.347656 823.875 157.867188 823.316406 157.207031 823.222656 L 151.9375 822.449219 C 151.542969 822.390625 151.175781 822.496094 150.871094 822.761719 C 150.570312 823.023438 150.410156 823.367188 150.410156 823.769531 Z M 303.75 825.371094 L 303.75 823.710938 C 303.75 823.308594 303.589844 822.960938 303.285156 822.699219 C 302.984375 822.4375 302.617188 822.332031 302.222656 822.390625 L 296.542969 823.222656 C 295.882812 823.320312 295.398438 823.875 295.398438 824.542969 C 295.398438 825.210938 295.882812 825.765625 296.542969 825.859375 L 302.222656 826.691406 C 302.617188 826.75 302.984375 826.644531 303.285156 826.382812 C 303.589844 826.121094 303.75 825.773438 303.75 825.375 Z M 303.75 805.515625 L 303.75 802.984375 C 303.75 802.519531 303.535156 802.121094 303.148438 801.867188 C 302.761719 801.613281 302.3125 801.574219 301.886719 801.757812 L 293.824219 805.234375 C 293.210938 805.5 292.894531 806.160156 293.066406 806.804688 C 293.238281 807.449219 293.847656 807.863281 294.507812 807.785156 L 302.570312 806.84375 C 303.246094 806.765625 303.75 806.195312 303.75 805.515625 Z M 303.75 783.636719 C 303.75 784.191406 303.425781 784.667969 302.90625 784.875 L 287.867188 790.851562 C 287.246094 791.097656 286.550781 790.855469 286.21875 790.28125 C 285.886719 789.703125 286.023438 788.976562 286.546875 788.566406 L 301.585938 776.675781 C 301.996094 776.351562 302.523438 776.292969 302.996094 776.523438 C 303.46875 776.75 303.75 777.199219 303.75 777.722656 Z M 298.511719 718.695312 C 298.6875 719.148438 298.617188 719.625 298.316406 720.003906 L 262.851562 764.867188 C 262.4375 765.390625 261.714844 765.527344 261.136719 765.195312 C 260.558594 764.863281 260.320312 764.167969 260.566406 763.546875 L 285.695312 700.3125 C 285.875 699.855469 286.261719 699.550781 286.75 699.484375 C 287.242188 699.417969 287.695312 699.605469 287.992188 699.996094 C 292.320312 705.660156 295.878906 711.945312 298.511719 718.695312 Z M 275.523438 687.105469 C 275.992188 687.488281 276.144531 688.109375 275.90625 688.664062 L 246.179688 757.585938 C 245.917969 758.199219 245.253906 758.519531 244.609375 758.347656 C 243.964844 758.175781 243.554688 757.566406 243.628906 756.90625 L 253.082031 676.101562 C 253.128906 675.679688 253.355469 675.335938 253.71875 675.113281 C 254.085938 674.894531 254.496094 674.859375 254.894531 675.015625 C 262.421875 677.964844 269.371094 682.070312 275.523438 687.105469 Z M 275.523438 687.105469 " fill-opacity="1" fill-rule="evenodd"/></g><g transform="matrix(1, 0, 0, 1, 369, 695)"><g clip-path="url(#5c338dca80)"><g fill="#1C1C1E" fill-opacity="1"><g transform="translate(0.982131, 114.907175)"><g><path d="M 30.265625 -76.828125 C 34.453125 -76.828125 37.679688 -76.382812 39.953125 -75.5 C 42.234375 -74.613281 44.191406 -73.671875 45.828125 -72.671875 C 46.671875 -72.179688 47.359375 -71.8125 47.890625 -71.5625 C 48.429688 -71.3125 48.945312 -71.1875 49.4375 -71.1875 C 50.15625 -71.1875 50.671875 -71.578125 50.984375 -72.359375 C 51.304688 -73.140625 51.578125 -74.3125 51.796875 -75.875 L 54.234375 -75.875 C 54.171875 -74.519531 54.082031 -72.898438 53.96875 -71.015625 C 53.863281 -69.140625 53.789062 -66.671875 53.75 -63.609375 C 53.71875 -60.554688 53.703125 -56.546875 53.703125 -51.578125 L 51.25 -51.578125 C 50.96875 -55.273438 50.113281 -58.863281 48.6875 -62.34375 C 47.269531 -65.820312 45.265625 -68.679688 42.671875 -70.921875 C 40.078125 -73.160156 36.898438 -74.28125 33.140625 -74.28125 C 29.734375 -74.28125 26.925781 -73.316406 24.71875 -71.390625 C 22.519531 -69.472656 21.421875 -66.8125 21.421875 -63.40625 C 21.421875 -60.5625 22.128906 -58.125 23.546875 -56.09375 C 24.972656 -54.070312 27.050781 -52.101562 29.78125 -50.1875 C 32.519531 -48.269531 35.84375 -45.960938 39.75 -43.265625 C 43.15625 -41.066406 46.207031 -38.863281 48.90625 -36.65625 C 51.613281 -34.457031 53.78125 -31.972656 55.40625 -29.203125 C 57.039062 -26.429688 57.859375 -23.125 57.859375 -19.28125 C 57.859375 -14.59375 56.632812 -10.722656 54.1875 -7.671875 C 51.738281 -4.617188 48.523438 -2.328125 44.546875 -0.796875 C 40.566406 0.722656 36.195312 1.484375 31.4375 1.484375 C 27.03125 1.484375 23.507812 1.054688 20.875 0.203125 C 18.25 -0.640625 16.050781 -1.523438 14.28125 -2.453125 C 12.71875 -3.441406 11.507812 -3.9375 10.65625 -3.9375 C 9.945312 -3.9375 9.429688 -3.546875 9.109375 -2.765625 C 8.785156 -1.984375 8.519531 -0.8125 8.3125 0.75 L 5.859375 0.75 C 6.003906 -0.957031 6.09375 -2.945312 6.125 -5.21875 C 6.164062 -7.488281 6.203125 -10.453125 6.234375 -14.109375 C 6.265625 -17.773438 6.28125 -22.414062 6.28125 -28.03125 L 8.734375 -28.03125 C 9.023438 -23.34375 9.828125 -18.953125 11.140625 -14.859375 C 12.453125 -10.773438 14.472656 -7.488281 17.203125 -5 C 19.941406 -2.519531 23.582031 -1.28125 28.125 -1.28125 C 30.613281 -1.28125 32.832031 -1.722656 34.78125 -2.609375 C 36.738281 -3.492188 38.320312 -4.820312 39.53125 -6.59375 C 40.738281 -8.375 41.34375 -10.582031 41.34375 -13.21875 C 41.34375 -16.195312 40.648438 -18.785156 39.265625 -20.984375 C 37.878906 -23.191406 35.992188 -25.253906 33.609375 -27.171875 C 31.234375 -29.085938 28.484375 -31.039062 25.359375 -33.03125 C 22.023438 -35.238281 18.898438 -37.441406 15.984375 -39.640625 C 13.066406 -41.835938 10.738281 -44.359375 9 -47.203125 C 7.257812 -50.046875 6.390625 -53.421875 6.390625 -57.328125 C 6.390625 -61.804688 7.507812 -65.484375 9.75 -68.359375 C 11.988281 -71.234375 14.9375 -73.363281 18.59375 -74.75 C 22.25 -76.132812 26.140625 -76.828125 30.265625 -76.828125 Z M 30.265625 -76.828125 "/></g></g></g><g fill="#1C1C1E" fill-opacity="1"><g transform="translate(71.20334, 114.907175)"><g><path d="M 39.21875 -75.65625 L 65.109375 -8.953125 C 66.109375 -6.390625 67.226562 -4.628906 68.46875 -3.671875 C 69.707031 -2.710938 70.828125 -2.195312 71.828125 -2.125 L 71.828125 0 C 69.691406 -0.144531 67.1875 -0.234375 64.3125 -0.265625 C 61.4375 -0.296875 58.539062 -0.3125 55.625 -0.3125 C 52.351562 -0.3125 49.257812 -0.296875 46.34375 -0.265625 C 43.4375 -0.234375 41.128906 -0.144531 39.421875 0 L 39.421875 -2.125 C 43.046875 -2.269531 45.335938 -2.890625 46.296875 -3.984375 C 47.253906 -5.085938 47.023438 -7.453125 45.609375 -11.078125 L 27.5 -60.640625 L 29.40625 -63.40625 L 13.21875 -21.203125 C 11.65625 -17.296875 10.710938 -14.097656 10.390625 -11.609375 C 10.066406 -9.128906 10.242188 -7.210938 10.921875 -5.859375 C 11.597656 -4.515625 12.695312 -3.570312 14.21875 -3.03125 C 15.75 -2.5 17.582031 -2.195312 19.71875 -2.125 L 19.71875 0 C 17.375 -0.144531 15.132812 -0.234375 13 -0.265625 C 10.863281 -0.296875 8.695312 -0.3125 6.5 -0.3125 C 4.9375 -0.3125 3.460938 -0.296875 2.078125 -0.265625 C 0.691406 -0.234375 -0.53125 -0.144531 -1.59375 0 L -1.59375 -2.125 C -0.101562 -2.414062 1.421875 -3.375 2.984375 -5 C 4.546875 -6.632812 6.070312 -9.410156 7.5625 -13.328125 L 31.859375 -75.65625 C 32.992188 -75.582031 34.21875 -75.546875 35.53125 -75.546875 C 36.851562 -75.546875 38.082031 -75.582031 39.21875 -75.65625 Z M 46.671875 -30.6875 L 46.671875 -28.5625 L 14.921875 -28.5625 L 15.984375 -30.6875 Z M 46.671875 -30.6875 "/></g></g></g><g fill="#1C1C1E" fill-opacity="1"><g transform="translate(150.26855, 114.907175)"><g><path d="M 60.640625 -75.453125 C 60.347656 -72.253906 60.148438 -69.160156 60.046875 -66.171875 C 59.941406 -63.191406 59.890625 -60.882812 59.890625 -59.25 C 59.890625 -57.6875 59.921875 -56.191406 59.984375 -54.765625 C 60.054688 -53.347656 60.128906 -52.144531 60.203125 -51.15625 L 57.75 -51.15625 C 56.832031 -56.695312 55.554688 -61.046875 53.921875 -64.203125 C 52.285156 -67.367188 50.273438 -69.625 47.890625 -70.96875 C 45.515625 -72.320312 42.691406 -73 39.421875 -73 L 35.90625 -73 C 33.851562 -73 32.289062 -72.820312 31.21875 -72.46875 C 30.15625 -72.113281 29.445312 -71.398438 29.09375 -70.328125 C 28.738281 -69.265625 28.5625 -67.628906 28.5625 -65.421875 L 28.5625 -11.9375 C 28.5625 -9.164062 28.84375 -7.101562 29.40625 -5.75 C 29.976562 -4.40625 31.082031 -3.519531 32.71875 -3.09375 C 34.351562 -2.664062 36.769531 -2.414062 39.96875 -2.34375 L 39.96875 0 C 37.757812 -0.0703125 34.914062 -0.140625 31.4375 -0.203125 C 27.957031 -0.273438 24.296875 -0.3125 20.453125 -0.3125 C 17.398438 -0.3125 14.414062 -0.273438 11.5 -0.203125 C 8.59375 -0.140625 5.96875 -0.0703125 3.625 0 L 3.625 -2.125 C 5.894531 -2.269531 7.597656 -2.554688 8.734375 -2.984375 C 9.867188 -3.410156 10.628906 -4.257812 11.015625 -5.53125 C 11.410156 -6.8125 11.609375 -8.734375 11.609375 -11.296875 L 11.609375 -64.15625 C 11.609375 -66.78125 11.410156 -68.710938 11.015625 -69.953125 C 10.628906 -71.203125 9.847656 -72.054688 8.671875 -72.515625 C 7.503906 -72.972656 5.820312 -73.238281 3.625 -73.3125 L 3.625 -75.453125 C 6.539062 -75.378906 9.628906 -75.320312 12.890625 -75.28125 C 16.160156 -75.25 19.394531 -75.210938 22.59375 -75.171875 C 25.789062 -75.140625 28.773438 -75.125 31.546875 -75.125 C 34.316406 -75.125 36.585938 -75.125 38.359375 -75.125 C 41.628906 -75.125 45.34375 -75.140625 49.5 -75.171875 C 53.65625 -75.210938 57.367188 -75.304688 60.640625 -75.453125 Z M 44.75 -38.578125 C 44.75 -38.578125 44.75 -38.21875 44.75 -37.5 C 44.75 -36.789062 44.75 -36.4375 44.75 -36.4375 L 25.359375 -36.4375 C 25.359375 -36.4375 25.359375 -36.789062 25.359375 -37.5 C 25.359375 -38.21875 25.359375 -38.578125 25.359375 -38.578125 Z M 47.421875 -52.640625 C 47.140625 -48.585938 47.015625 -45.492188 47.046875 -43.359375 C 47.078125 -41.234375 47.09375 -39.285156 47.09375 -37.515625 C 47.09375 -35.734375 47.128906 -33.773438 47.203125 -31.640625 C 47.273438 -29.515625 47.453125 -26.425781 47.734375 -22.375 L 45.296875 -22.375 C 44.867188 -24.863281 44.191406 -27.171875 43.265625 -29.296875 C 42.335938 -31.429688 40.984375 -33.15625 39.203125 -34.46875 C 37.429688 -35.78125 35.125 -36.4375 32.28125 -36.4375 L 32.28125 -38.578125 C 34.414062 -38.578125 36.210938 -39.019531 37.671875 -39.90625 C 39.128906 -40.789062 40.351562 -41.960938 41.34375 -43.421875 C 42.34375 -44.878906 43.125 -46.425781 43.6875 -48.0625 C 44.257812 -49.695312 44.6875 -51.222656 44.96875 -52.640625 Z M 47.421875 -52.640625 "/></g></g></g><g fill="#1C1C1E" fill-opacity="1"><g transform="translate(221.342192, 114.907175)"><g><path d="M 39.21875 -75.65625 L 65.109375 -8.953125 C 66.109375 -6.390625 67.226562 -4.628906 68.46875 -3.671875 C 69.707031 -2.710938 70.828125 -2.195312 71.828125 -2.125 L 71.828125 0 C 69.691406 -0.144531 67.1875 -0.234375 64.3125 -0.265625 C 61.4375 -0.296875 58.539062 -0.3125 55.625 -0.3125 C 52.351562 -0.3125 49.257812 -0.296875 46.34375 -0.265625 C 43.4375 -0.234375 41.128906 -0.144531 39.421875 0 L 39.421875 -2.125 C 43.046875 -2.269531 45.335938 -2.890625 46.296875 -3.984375 C 47.253906 -5.085938 47.023438 -7.453125 45.609375 -11.078125 L 27.5 -60.640625 L 29.40625 -63.40625 L 13.21875 -21.203125 C 11.65625 -17.296875 10.710938 -14.097656 10.390625 -11.609375 C 10.066406 -9.128906 10.242188 -7.210938 10.921875 -5.859375 C 11.597656 -4.515625 12.695312 -3.570312 14.21875 -3.03125 C 15.75 -2.5 17.582031 -2.195312 19.71875 -2.125 L 19.71875 0 C 17.375 -0.144531 15.132812 -0.234375 13 -0.265625 C 10.863281 -0.296875 8.695312 -0.3125 6.5 -0.3125 C 4.9375 -0.3125 3.460938 -0.296875 2.078125 -0.265625 C 0.691406 -0.234375 -0.53125 -0.144531 -1.59375 0 L -1.59375 -2.125 C -0.101562 -2.414062 1.421875 -3.375 2.984375 -5 C 4.546875 -6.632812 6.070312 -9.410156 7.5625 -13.328125 L 31.859375 -75.65625 C 32.992188 -75.582031 34.21875 -75.546875 35.53125 -75.546875 C 36.851562 -75.546875 38.082031 -75.582031 39.21875 -75.65625 Z M 46.671875 -30.6875 L 46.671875 -28.5625 L 14.921875 -28.5625 L 15.984375 -30.6875 Z M 46.671875 -30.6875 "/></g></g></g><g fill="#1C1C1E" fill-opacity="1"><g transform="translate(300.407402, 114.907175)"><g><path d="M 73.421875 -75.453125 L 73.421875 -73.421875 C 71.148438 -72.921875 68.71875 -71.925781 66.125 -70.4375 C 63.53125 -68.945312 60.8125 -66.53125 57.96875 -63.1875 L 37.9375 -39.328125 L 44.109375 -48.171875 L 69.484375 -8.625 C 70.472656 -7 71.535156 -5.6875 72.671875 -4.6875 C 73.804688 -3.695312 75.300781 -2.84375 77.15625 -2.125 L 77.15625 0 C 74.664062 -0.144531 71.890625 -0.234375 68.828125 -0.265625 C 65.773438 -0.296875 63.007812 -0.3125 60.53125 -0.3125 C 59.039062 -0.3125 57.226562 -0.296875 55.09375 -0.265625 C 52.957031 -0.234375 50.257812 -0.144531 47 0 L 47 -2.125 C 49.90625 -2.269531 51.660156 -2.679688 52.265625 -3.359375 C 52.867188 -4.035156 52.601562 -5.222656 51.46875 -6.921875 L 36.015625 -31.96875 C 35.023438 -33.601562 34.140625 -34.828125 33.359375 -35.640625 C 32.578125 -36.460938 31.796875 -37.03125 31.015625 -37.34375 C 30.234375 -37.664062 29.203125 -37.863281 27.921875 -37.9375 L 27.921875 -40.171875 C 31.046875 -40.242188 33.832031 -41.097656 36.28125 -42.734375 C 38.738281 -44.367188 41.421875 -46.851562 44.328125 -50.1875 L 50.625 -57.75 C 53.320312 -60.945312 54.898438 -63.703125 55.359375 -66.015625 C 55.816406 -68.328125 55.351562 -70.117188 53.96875 -71.390625 C 52.582031 -72.671875 50.472656 -73.347656 47.640625 -73.421875 L 47.640625 -75.453125 C 49.410156 -75.378906 51.09375 -75.320312 52.6875 -75.28125 C 54.289062 -75.25 55.960938 -75.210938 57.703125 -75.171875 C 59.441406 -75.140625 61.34375 -75.125 63.40625 -75.125 C 65.46875 -75.125 67.332031 -75.160156 69 -75.234375 C 70.664062 -75.304688 72.140625 -75.378906 73.421875 -75.453125 Z M 36.546875 -75.453125 L 36.546875 -73.3125 C 34.273438 -73.238281 32.550781 -72.972656 31.375 -72.515625 C 30.207031 -72.054688 29.445312 -71.203125 29.09375 -69.953125 C 28.738281 -68.710938 28.5625 -66.78125 28.5625 -64.15625 L 28.5625 -11.296875 C 28.5625 -8.734375 28.753906 -6.8125 29.140625 -5.53125 C 29.535156 -4.257812 30.300781 -3.410156 31.4375 -2.984375 C 32.570312 -2.554688 34.273438 -2.269531 36.546875 -2.125 L 36.546875 0 C 34.628906 -0.144531 32.210938 -0.234375 29.296875 -0.265625 C 26.390625 -0.296875 23.441406 -0.3125 20.453125 -0.3125 C 17.046875 -0.3125 13.832031 -0.296875 10.8125 -0.265625 C 7.789062 -0.234375 5.394531 -0.144531 3.625 0 L 3.625 -2.125 C 5.894531 -2.269531 7.597656 -2.554688 8.734375 -2.984375 C 9.867188 -3.410156 10.628906 -4.257812 11.015625 -5.53125 C 11.410156 -6.8125 11.609375 -8.734375 11.609375 -11.296875 L 11.609375 -64.15625 C 11.609375 -66.78125 11.410156 -68.710938 11.015625 -69.953125 C 10.628906 -71.203125 9.847656 -72.054688 8.671875 -72.515625 C 7.503906 -72.972656 5.820312 -73.238281 3.625 -73.3125 L 3.625 -75.453125 C 5.394531 -75.378906 7.789062 -75.304688 10.8125 -75.234375 C 13.832031 -75.160156 17.046875 -75.125 20.453125 -75.125 C 23.441406 -75.125 26.390625 -75.160156 29.296875 -75.234375 C 32.210938 -75.304688 34.628906 -75.378906 36.546875 -75.453125 Z M 36.546875 -75.453125 "/></g></g></g><g fill="#1C1C1E" fill-opacity="1"><g transform="translate(384.490454, 114.907175)"><g/></g></g><g fill="#1C1C1E" fill-opacity="1"><g transform="translate(419.016013, 114.907175)"><g><path d="M 4.46875 -75.453125 C 5.96875 -75.378906 7.921875 -75.304688 10.328125 -75.234375 C 12.742188 -75.160156 15.125 -75.125 17.46875 -75.125 C 20.8125 -75.125 24.007812 -75.160156 27.0625 -75.234375 C 30.125 -75.304688 32.289062 -75.34375 33.5625 -75.34375 C 42.164062 -75.34375 48.597656 -73.390625 52.859375 -69.484375 C 57.117188 -65.578125 59.25 -60.53125 59.25 -54.34375 C 59.25 -51.789062 58.820312 -49.109375 57.96875 -46.296875 C 57.113281 -43.492188 55.640625 -40.898438 53.546875 -38.515625 C 51.453125 -36.140625 48.59375 -34.207031 44.96875 -32.71875 C 41.34375 -31.226562 36.757812 -30.484375 31.21875 -30.484375 L 21 -30.484375 L 21 -32.609375 L 30.15625 -32.609375 C 35.195312 -32.609375 39.050781 -33.566406 41.71875 -35.484375 C 44.382812 -37.398438 46.195312 -39.921875 47.15625 -43.046875 C 48.113281 -46.171875 48.59375 -49.546875 48.59375 -53.171875 C 48.59375 -59.921875 47.257812 -64.960938 44.59375 -68.296875 C 41.925781 -71.640625 37.363281 -73.3125 30.90625 -73.3125 C 27.632812 -73.3125 25.5 -72.707031 24.5 -71.5 C 23.507812 -70.289062 23.015625 -67.84375 23.015625 -64.15625 L 23.015625 -11.296875 C 23.015625 -8.734375 23.28125 -6.8125 23.8125 -5.53125 C 24.34375 -4.257812 25.390625 -3.410156 26.953125 -2.984375 C 28.523438 -2.554688 30.800781 -2.269531 33.78125 -2.125 L 33.78125 0 C 31.9375 -0.144531 29.59375 -0.234375 26.75 -0.265625 C 23.90625 -0.296875 21.023438 -0.3125 18.109375 -0.3125 C 15.335938 -0.3125 12.742188 -0.296875 10.328125 -0.265625 C 7.921875 -0.234375 5.96875 -0.144531 4.46875 0 L 4.46875 -2.125 C 6.882812 -2.269531 8.710938 -2.554688 9.953125 -2.984375 C 11.203125 -3.410156 12.039062 -4.257812 12.46875 -5.53125 C 12.894531 -6.8125 13.109375 -8.734375 13.109375 -11.296875 L 13.109375 -64.15625 C 13.109375 -66.78125 12.894531 -68.710938 12.46875 -69.953125 C 12.039062 -71.203125 11.203125 -72.054688 9.953125 -72.515625 C 8.710938 -72.972656 6.882812 -73.238281 4.46875 -73.3125 Z M 4.46875 -75.453125 "/></g></g></g><g fill="#1C1C1E" fill-opacity="1"><g transform="translate(489.343782, 114.907175)"><g><path d="M 34.421875 -75.984375 L 60.421875 -8.953125 C 61.484375 -6.253906 62.6875 -4.457031 64.03125 -3.5625 C 65.382812 -2.675781 66.632812 -2.195312 67.78125 -2.125 L 67.78125 0 C 66.351562 -0.144531 64.609375 -0.234375 62.546875 -0.265625 C 60.492188 -0.296875 58.4375 -0.3125 56.375 -0.3125 C 53.601562 -0.3125 51.007812 -0.296875 48.59375 -0.265625 C 46.175781 -0.234375 44.222656 -0.144531 42.734375 0 L 42.734375 -2.125 C 46.359375 -2.269531 48.664062 -2.890625 49.65625 -3.984375 C 50.65625 -5.085938 50.441406 -7.453125 49.015625 -11.078125 L 29.203125 -64.046875 L 30.90625 -65.421875 L 12.359375 -17.265625 C 11.222656 -14.421875 10.546875 -12.019531 10.328125 -10.0625 C 10.117188 -8.113281 10.316406 -6.570312 10.921875 -5.4375 C 11.523438 -4.300781 12.554688 -3.484375 14.015625 -2.984375 C 15.472656 -2.484375 17.300781 -2.195312 19.5 -2.125 L 19.5 0 C 17.507812 -0.144531 15.429688 -0.234375 13.265625 -0.265625 C 11.097656 -0.296875 9.09375 -0.3125 7.25 -0.3125 C 5.46875 -0.3125 3.957031 -0.296875 2.71875 -0.265625 C 1.476562 -0.234375 0.320312 -0.144531 -0.75 0 L -0.75 -2.125 C 0.675781 -2.488281 2.132812 -3.328125 3.625 -4.640625 C 5.113281 -5.953125 6.460938 -8.207031 7.671875 -11.40625 L 32.71875 -75.984375 C 33 -75.984375 33.28125 -75.984375 33.5625 -75.984375 C 33.851562 -75.984375 34.140625 -75.984375 34.421875 -75.984375 Z M 47.421875 -30.6875 L 47.421875 -28.5625 L 15.671875 -28.5625 L 16.734375 -30.6875 Z M 47.421875 -30.6875 "/></g></g></g><g fill="#1C1C1E" fill-opacity="1"><g transform="translate(564.466489, 114.907175)"><g><path d="M 65.53125 -75.453125 L 65.53125 -73.3125 C 63.332031 -73.03125 61.203125 -72.320312 59.140625 -71.1875 C 57.078125 -70.050781 55.019531 -68.164062 52.96875 -65.53125 L 32.390625 -39.21875 L 34.734375 -44.4375 L 60.3125 -8.625 C 61.519531 -6.851562 62.832031 -5.46875 64.25 -4.46875 C 65.675781 -3.476562 67.488281 -2.695312 69.6875 -2.125 L 69.6875 0 C 67.988281 -0.144531 65.875 -0.234375 63.34375 -0.265625 C 60.820312 -0.296875 58.675781 -0.3125 56.90625 -0.3125 C 55.695312 -0.3125 54.222656 -0.296875 52.484375 -0.265625 C 50.742188 -0.234375 48.554688 -0.144531 45.921875 0 L 45.921875 -2.125 C 48.335938 -2.269531 49.863281 -2.695312 50.5 -3.40625 C 51.144531 -4.113281 50.898438 -5.285156 49.765625 -6.921875 L 34.203125 -30.375 C 32.785156 -32.570312 31.523438 -34.222656 30.421875 -35.328125 C 29.316406 -36.429688 28.175781 -37.160156 27 -37.515625 C 25.832031 -37.867188 24.363281 -38.082031 22.59375 -38.15625 L 22.59375 -40.28125 C 25.570312 -40.351562 28.070312 -40.9375 30.09375 -42.03125 C 32.125 -43.132812 33.816406 -44.539062 35.171875 -46.25 L 45.390625 -59.25 C 47.734375 -62.226562 49.332031 -64.75 50.1875 -66.8125 C 51.039062 -68.875 51.003906 -70.453125 50.078125 -71.546875 C 49.160156 -72.648438 47.207031 -73.238281 44.21875 -73.3125 L 44.21875 -75.453125 C 45.570312 -75.378906 46.957031 -75.320312 48.375 -75.28125 C 49.800781 -75.25 51.207031 -75.210938 52.59375 -75.171875 C 53.976562 -75.140625 55.273438 -75.125 56.484375 -75.125 C 58.328125 -75.125 60.03125 -75.160156 61.59375 -75.234375 C 63.15625 -75.304688 64.46875 -75.378906 65.53125 -75.453125 Z M 31.65625 -75.453125 L 31.65625 -73.3125 C 29.238281 -73.238281 27.40625 -72.972656 26.15625 -72.515625 C 24.914062 -72.054688 24.082031 -71.203125 23.65625 -69.953125 C 23.226562 -68.710938 23.015625 -66.78125 23.015625 -64.15625 L 23.015625 -11.296875 C 23.015625 -8.734375 23.226562 -6.8125 23.65625 -5.53125 C 24.082031 -4.257812 24.914062 -3.410156 26.15625 -2.984375 C 27.40625 -2.554688 29.238281 -2.269531 31.65625 -2.125 L 31.65625 0 C 30.019531 -0.144531 27.972656 -0.234375 25.515625 -0.265625 C 23.066406 -0.296875 20.597656 -0.3125 18.109375 -0.3125 C 15.335938 -0.3125 12.742188 -0.296875 10.328125 -0.265625 C 7.921875 -0.234375 5.96875 -0.144531 4.46875 0 L 4.46875 -2.125 C 6.882812 -2.269531 8.710938 -2.554688 9.953125 -2.984375 C 11.203125 -3.410156 12.039062 -4.257812 12.46875 -5.53125 C 12.894531 -6.8125 13.109375 -8.734375 13.109375 -11.296875 L 13.109375 -64.15625 C 13.109375 -66.78125 12.894531 -68.710938 12.46875 -69.953125 C 12.039062 -71.203125 11.203125 -72.054688 9.953125 -72.515625 C 8.710938 -72.972656 6.882812 -73.238281 4.46875 -73.3125 L 4.46875 -75.453125 C 5.96875 -75.378906 7.921875 -75.304688 10.328125 -75.234375 C 12.742188 -75.160156 15.335938 -75.125 18.109375 -75.125 C 20.597656 -75.125 23.066406 -75.160156 25.515625 -75.234375 C 27.972656 -75.304688 30.019531 -75.378906 31.65625 -75.453125 Z M 31.65625 -75.453125 "/></g></g></g><g fill="#1C1C1E" fill-opacity="1"><g transform="translate(642.253039, 114.907175)"><g><path d="M 31.65625 -75.453125 L 31.65625 -73.3125 C 29.238281 -73.238281 27.40625 -72.972656 26.15625 -72.515625 C 24.914062 -72.054688 24.082031 -71.203125 23.65625 -69.953125 C 23.226562 -68.710938 23.015625 -66.78125 23.015625 -64.15625 L 23.015625 -11.296875 C 23.015625 -8.734375 23.226562 -6.8125 23.65625 -5.53125 C 24.082031 -4.257812 24.914062 -3.410156 26.15625 -2.984375 C 27.40625 -2.554688 29.238281 -2.269531 31.65625 -2.125 L 31.65625 0 C 30.019531 -0.144531 27.972656 -0.234375 25.515625 -0.265625 C 23.066406 -0.296875 20.597656 -0.3125 18.109375 -0.3125 C 15.335938 -0.3125 12.742188 -0.296875 10.328125 -0.265625 C 7.921875 -0.234375 5.96875 -0.144531 4.46875 0 L 4.46875 -2.125 C 6.882812 -2.269531 8.710938 -2.554688 9.953125 -2.984375 C 11.203125 -3.410156 12.039062 -4.257812 12.46875 -5.53125 C 12.894531 -6.8125 13.109375 -8.734375 13.109375 -11.296875 L 13.109375 -64.15625 C 13.109375 -66.78125 12.894531 -68.710938 12.46875 -69.953125 C 12.039062 -71.203125 11.203125 -72.054688 9.953125 -72.515625 C 8.710938 -72.972656 6.882812 -73.238281 4.46875 -73.3125 L 4.46875 -75.453125 C 5.96875 -75.378906 7.921875 -75.304688 10.328125 -75.234375 C 12.742188 -75.160156 15.335938 -75.125 18.109375 -75.125 C 20.597656 -75.125 23.066406 -75.160156 25.515625 -75.234375 C 27.972656 -75.304688 30.019531 -75.378906 31.65625 -75.453125 Z M 31.65625 -75.453125 "/></g></g></g><g fill="#1C1C1E" fill-opacity="1"><g transform="translate(686.36847, 114.907175)"><g><path d="M 27.28125 -76.625 C 30.832031 -76.625 33.53125 -76.210938 35.375 -75.390625 C 37.226562 -74.578125 38.863281 -73.671875 40.28125 -72.671875 C 41.132812 -72.179688 41.828125 -71.8125 42.359375 -71.5625 C 42.890625 -71.3125 43.40625 -71.1875 43.90625 -71.1875 C 44.613281 -71.1875 45.125 -71.578125 45.4375 -72.359375 C 45.757812 -73.140625 46.03125 -74.3125 46.25 -75.875 L 48.703125 -75.875 C 48.628906 -74.664062 48.535156 -73.222656 48.421875 -71.546875 C 48.316406 -69.878906 48.25 -67.675781 48.21875 -64.9375 C 48.1875 -62.207031 48.171875 -58.609375 48.171875 -54.140625 L 45.71875 -54.140625 C 45.5 -57.546875 44.75 -60.8125 43.46875 -63.9375 C 42.195312 -67.0625 40.332031 -69.617188 37.875 -71.609375 C 35.425781 -73.597656 32.210938 -74.59375 28.234375 -74.59375 C 24.472656 -74.59375 21.363281 -73.457031 18.90625 -71.1875 C 16.457031 -68.914062 15.234375 -65.929688 15.234375 -62.234375 C 15.234375 -59.035156 16.050781 -56.351562 17.6875 -54.1875 C 19.320312 -52.019531 21.503906 -50.066406 24.234375 -48.328125 C 26.972656 -46.585938 29.941406 -44.722656 33.140625 -42.734375 C 36.835938 -40.460938 40.125 -38.207031 43 -35.96875 C 45.875 -33.726562 48.144531 -31.257812 49.8125 -28.5625 C 51.488281 -25.863281 52.328125 -22.59375 52.328125 -18.75 C 52.328125 -14.207031 51.296875 -10.441406 49.234375 -7.453125 C 47.171875 -4.472656 44.429688 -2.238281 41.015625 -0.75 C 37.609375 0.738281 33.847656 1.484375 29.734375 1.484375 C 25.960938 1.484375 22.972656 1.054688 20.765625 0.203125 C 18.566406 -0.640625 16.6875 -1.523438 15.125 -2.453125 C 13.5625 -3.441406 12.359375 -3.9375 11.515625 -3.9375 C 10.796875 -3.9375 10.273438 -3.546875 9.953125 -2.765625 C 9.640625 -1.984375 9.378906 -0.8125 9.171875 0.75 L 6.71875 0.75 C 6.851562 -0.738281 6.9375 -2.492188 6.96875 -4.515625 C 7.007812 -6.546875 7.046875 -9.195312 7.078125 -12.46875 C 7.117188 -15.738281 7.140625 -19.859375 7.140625 -24.828125 L 9.59375 -24.828125 C 9.875 -20.566406 10.671875 -16.585938 11.984375 -12.890625 C 13.296875 -9.203125 15.320312 -6.238281 18.0625 -4 C 20.800781 -1.757812 24.441406 -0.640625 28.984375 -0.640625 C 31.328125 -0.640625 33.546875 -1.117188 35.640625 -2.078125 C 37.734375 -3.035156 39.457031 -4.5625 40.8125 -6.65625 C 42.164062 -8.75 42.84375 -11.46875 42.84375 -14.8125 C 42.84375 -17.726562 42.148438 -20.269531 40.765625 -22.4375 C 39.378906 -24.601562 37.441406 -26.625 34.953125 -28.5 C 32.460938 -30.382812 29.550781 -32.320312 26.21875 -34.3125 C 22.875 -36.375 19.742188 -38.46875 16.828125 -40.59375 C 13.921875 -42.726562 11.597656 -45.195312 9.859375 -48 C 8.117188 -50.8125 7.25 -54.207031 7.25 -58.1875 C 7.25 -62.375 8.1875 -65.832031 10.0625 -68.5625 C 11.945312 -71.300781 14.414062 -73.328125 17.46875 -74.640625 C 20.53125 -75.960938 23.800781 -76.625 27.28125 -76.625 Z M 27.28125 -76.625 "/></g></g></g><g fill="#1C1C1E" fill-opacity="1"><g transform="translate(751.901286, 114.907175)"><g><path d="M 63.078125 -75.453125 C 62.796875 -72.742188 62.601562 -70.128906 62.5 -67.609375 C 62.394531 -65.085938 62.34375 -63.15625 62.34375 -61.8125 C 62.34375 -60.101562 62.375 -58.5 62.4375 -57 C 62.507812 -55.507812 62.582031 -54.195312 62.65625 -53.0625 L 60.203125 -53.0625 C 59.710938 -58.039062 59.039062 -61.96875 58.1875 -64.84375 C 57.332031 -67.71875 55.835938 -69.796875 53.703125 -71.078125 C 51.578125 -72.359375 48.273438 -73 43.796875 -73 L 38.046875 -73 L 38.046875 -12.359375 C 38.046875 -9.515625 38.3125 -7.382812 38.84375 -5.96875 C 39.375 -4.550781 40.421875 -3.59375 41.984375 -3.09375 C 43.546875 -2.59375 45.820312 -2.269531 48.8125 -2.125 L 48.8125 0 C 46.957031 -0.144531 44.609375 -0.234375 41.765625 -0.265625 C 38.929688 -0.296875 36.054688 -0.3125 33.140625 -0.3125 C 29.941406 -0.3125 26.9375 -0.296875 24.125 -0.265625 C 21.320312 -0.234375 19.070312 -0.144531 17.375 0 L 17.375 -2.125 C 20.351562 -2.269531 22.625 -2.59375 24.1875 -3.09375 C 25.75 -3.59375 26.796875 -4.550781 27.328125 -5.96875 C 27.859375 -7.382812 28.125 -9.515625 28.125 -12.359375 L 28.125 -73 L 22.375 -73 C 17.96875 -73 14.679688 -72.359375 12.515625 -71.078125 C 10.347656 -69.796875 8.835938 -67.71875 7.984375 -64.84375 C 7.140625 -61.96875 6.46875 -58.039062 5.96875 -53.0625 L 3.515625 -53.0625 C 3.660156 -54.195312 3.75 -55.507812 3.78125 -57 C 3.820312 -58.5 3.84375 -60.101562 3.84375 -61.8125 C 3.84375 -63.15625 3.785156 -65.085938 3.671875 -67.609375 C 3.566406 -70.128906 3.375 -72.742188 3.09375 -75.453125 C 6.070312 -75.378906 9.316406 -75.304688 12.828125 -75.234375 C 16.347656 -75.160156 19.882812 -75.125 23.4375 -75.125 C 26.988281 -75.125 30.222656 -75.125 33.140625 -75.125 C 36.054688 -75.125 39.269531 -75.125 42.78125 -75.125 C 46.300781 -75.125 49.835938 -75.160156 53.390625 -75.234375 C 56.941406 -75.304688 60.171875 -75.378906 63.078125 -75.453125 Z M 63.078125 -75.453125 "/></g></g></g><g fill="#1C1C1E" fill-opacity="1"><g transform="translate(826.065016, 114.907175)"><g><path d="M 34.421875 -75.984375 L 60.421875 -8.953125 C 61.484375 -6.253906 62.6875 -4.457031 64.03125 -3.5625 C 65.382812 -2.675781 66.632812 -2.195312 67.78125 -2.125 L 67.78125 0 C 66.351562 -0.144531 64.609375 -0.234375 62.546875 -0.265625 C 60.492188 -0.296875 58.4375 -0.3125 56.375 -0.3125 C 53.601562 -0.3125 51.007812 -0.296875 48.59375 -0.265625 C 46.175781 -0.234375 44.222656 -0.144531 42.734375 0 L 42.734375 -2.125 C 46.359375 -2.269531 48.664062 -2.890625 49.65625 -3.984375 C 50.65625 -5.085938 50.441406 -7.453125 49.015625 -11.078125 L 29.203125 -64.046875 L 30.90625 -65.421875 L 12.359375 -17.265625 C 11.222656 -14.421875 10.546875 -12.019531 10.328125 -10.0625 C 10.117188 -8.113281 10.316406 -6.570312 10.921875 -5.4375 C 11.523438 -4.300781 12.554688 -3.484375 14.015625 -2.984375 C 15.472656 -2.484375 17.300781 -2.195312 19.5 -2.125 L 19.5 0 C 17.507812 -0.144531 15.429688 -0.234375 13.265625 -0.265625 C 11.097656 -0.296875 9.09375 -0.3125 7.25 -0.3125 C 5.46875 -0.3125 3.957031 -0.296875 2.71875 -0.265625 C 1.476562 -0.234375 0.320312 -0.144531 -0.75 0 L -0.75 -2.125 C 0.675781 -2.488281 2.132812 -3.328125 3.625 -4.640625 C 5.113281 -5.953125 6.460938 -8.207031 7.671875 -11.40625 L 32.71875 -75.984375 C 33 -75.984375 33.28125 -75.984375 33.5625 -75.984375 C 33.851562 -75.984375 34.140625 -75.984375 34.421875 -75.984375 Z M 47.421875 -30.6875 L 47.421875 -28.5625 L 15.671875 -28.5625 L 16.734375 -30.6875 Z M 47.421875 -30.6875 "/></g></g></g><g fill="#1C1C1E" fill-opacity="1"><g transform="translate(901.187742, 114.907175)"><g><path d="M 71.390625 -75.453125 L 71.390625 -73.3125 C 68.984375 -73.238281 67.15625 -72.882812 65.90625 -72.25 C 64.664062 -71.613281 63.832031 -70.582031 63.40625 -69.15625 C 62.976562 -67.738281 62.765625 -65.710938 62.765625 -63.078125 L 62.765625 0.53125 C 62.335938 0.53125 61.925781 0.53125 61.53125 0.53125 C 61.144531 0.53125 60.738281 0.53125 60.3125 0.53125 L 15.5625 -68.625 L 15.5625 -12.359375 C 15.5625 -9.804688 15.789062 -7.800781 16.25 -6.34375 C 16.707031 -4.882812 17.628906 -3.851562 19.015625 -3.25 C 20.398438 -2.644531 22.476562 -2.269531 25.25 -2.125 L 25.25 0 C 23.976562 -0.144531 22.3125 -0.234375 20.25 -0.265625 C 18.1875 -0.296875 16.234375 -0.3125 14.390625 -0.3125 C 12.609375 -0.3125 10.8125 -0.296875 9 -0.265625 C 7.1875 -0.234375 5.675781 -0.144531 4.46875 0 L 4.46875 -2.125 C 6.882812 -2.269531 8.710938 -2.644531 9.953125 -3.25 C 11.203125 -3.851562 12.039062 -4.882812 12.46875 -6.34375 C 12.894531 -7.800781 13.109375 -9.804688 13.109375 -12.359375 L 13.109375 -64.15625 C 13.109375 -66.78125 12.894531 -68.710938 12.46875 -69.953125 C 12.039062 -71.203125 11.203125 -72.054688 9.953125 -72.515625 C 8.710938 -72.972656 6.882812 -73.238281 4.46875 -73.3125 L 4.46875 -75.453125 C 5.675781 -75.378906 7.1875 -75.304688 9 -75.234375 C 10.8125 -75.160156 12.609375 -75.125 14.390625 -75.125 C 15.953125 -75.125 17.441406 -75.160156 18.859375 -75.234375 C 20.285156 -75.304688 21.566406 -75.378906 22.703125 -75.453125 L 60.3125 -17.46875 L 60.3125 -63.078125 C 60.3125 -65.710938 60.078125 -67.738281 59.609375 -69.15625 C 59.148438 -70.582031 58.226562 -71.613281 56.84375 -72.25 C 55.457031 -72.882812 53.382812 -73.238281 50.625 -73.3125 L 50.625 -75.453125 C 51.894531 -75.378906 53.578125 -75.304688 55.671875 -75.234375 C 57.773438 -75.160156 59.710938 -75.125 61.484375 -75.125 C 63.328125 -75.125 65.15625 -75.160156 66.96875 -75.234375 C 68.78125 -75.304688 70.253906 -75.378906 71.390625 -75.453125 Z M 71.390625 -75.453125 "/></g></g></g></g></g></svg>